<svg xmlns="http://www.w3.org/2000/svg" width="39.08" height="26.506" viewBox="0 0 39.08 26.506"><g transform="translate(-139.233 -62.916)"><path d="M24.539,9.77H4.247C1.905,9.77,0,7.579,0,4.885S1.905,0,4.247,0H24.539a.906.906,0,0,1,.975.886,1.009,1.009,0,0,1-.863,1.1H4.832a2.9,2.9,0,0,0,0,5.8H24.538a1.072,1.072,0,0,1,1.176,1.026.89.89,0,0,1-.288.661A1.278,1.278,0,0,1,24.539,9.77Z" transform="matrix(0.616, -0.788, 0.788, 0.616, 153.901, 83.179)" fill="#fff"/><path d="M24.539,9.77H4.247C1.905,9.77,0,7.579,0,4.885S1.905,0,4.247,0H24.539a.906.906,0,0,1,.975.886,1.009,1.009,0,0,1-.863,1.1H4.832a2.9,2.9,0,0,0,0,5.8H24.538a1.072,1.072,0,0,1,1.176,1.026.89.89,0,0,1-.288.661A1.278,1.278,0,0,1,24.539,9.77Z" transform="matrix(0.616, -0.788, 0.788, 0.616, 139.233, 83.406)" fill="#fff"/><rect width="2" height="15" rx="1" transform="matrix(0.799, 0.602, -0.602, 0.799, 176.715, 71.908)" fill="#fff"/><rect width="2" height="11" rx="1" transform="matrix(0.799, 0.602, -0.602, 0.799, 148.308, 66.103)" fill="#fff"/></g></svg>