<svg xmlns="http://www.w3.org/2000/svg" width="35" height="28" viewBox="0 0 35 28">
  <path id="FontAwsome_mosque_" data-name="FontAwsome (mosque)" d="M0,26.25A1.75,1.75,0,0,0,1.75,28h3.5A1.75,1.75,0,0,0,7,26.25V8.75H0Zm31.673-10.5a4.561,4.561,0,0,0,1.577-3.222c0-2.891-2.285-5.129-4.808-6.721A24.992,24.992,0,0,1,22.319.545L21.875,0l-.444.545a24.97,24.97,0,0,1-6.123,5.262C12.785,7.4,10.5,9.638,10.5,12.528a4.561,4.561,0,0,0,1.577,3.222h19.6ZM33.25,17.5H10.5a1.75,1.75,0,0,0-1.75,1.75v7A1.75,1.75,0,0,0,10.5,28h1.75V24.5a1.75,1.75,0,0,1,3.5,0V28h3.5V24.063c0-2.625,2.625-3.937,2.625-3.937S24.5,21.438,24.5,24.063V28H28V24.5a1.75,1.75,0,0,1,3.5,0V28h1.75A1.75,1.75,0,0,0,35,26.25v-7A1.75,1.75,0,0,0,33.25,17.5ZM3.5,0S0,1.75,0,5.25V7H7V5.25C7,1.75,3.5,0,3.5,0Z" fill="#fff" opacity="0.8"/>
</svg>
